<svg width="256" height="256" viewBox="0 0 256 256" fill="none" xmlns="http://www.w3.org/2000/svg">
<path d="M222 128C222 179.915 179.915 222 128 222C76.0852 222 34 179.915 34 128C34 76.0852 76.0852 34 128 34C179.915 34 222 76.0852 222 128Z" fill="black"/>
<path d="M139 73H161V95H139V73Z" fill="#39FF14"/>
<path d="M73 73H95V95H73V73Z" fill="#39FF14"/>
<path d="M95 73H117V95H95V73Z" fill="#39FF14"/>
<path d="M161 73H183V95H161V73Z" fill="#39FF14"/>
<path d="M117 139H139V161H117V139Z" fill="#39FF14"/>
<path d="M73 139H95V161H73V139Z" fill="#39FF14"/>
<path d="M161 139H183V161H161V139Z" fill="#39FF14"/>
<path d="M117 117H139V139H117V117Z" fill="#39FF14"/>
<path d="M139 117H161V139H139V117Z" fill="#39FF14"/>
<path d="M73 117H95V139H73V117Z" fill="#39FF14"/>
<path d="M95 117H117V139H95V117Z" fill="#39FF14"/>
<path d="M161 117H183V139H161V117Z" fill="#39FF14"/>
<path d="M117 161H139V183H117V161Z" fill="#39FF14"/>
<path d="M139 161H161V183H139V161Z" fill="#39FF14"/>
<path d="M73 161H95V183H73V161Z" fill="#39FF14"/>
<path d="M95 161H117V183H95V161Z" fill="#39FF14"/>
<path d="M161 161H183V183H161V161Z" fill="#39FF14"/>
<path d="M139 95H161V117H139V95Z" fill="#39FF14"/>
<path d="M95 95H117V117H95V95Z" fill="#39FF14"/>
</svg>
